<?xml version="1.0" standalone="no"?>
<!DOCTYPE svg PUBLIC "-//W3C//DTD SVG 20010904//EN"
 "http://www.w3.org/TR/2001/REC-SVG-20010904/DTD/svg10.dtd">
<svg version="1.0" xmlns="http://www.w3.org/2000/svg"
 width="462.000000pt" height="430.000000pt" viewBox="0 0 462.000000 430.000000"
 preserveAspectRatio="xMidYMid meet">

<g transform="translate(0.000000,430.000000) scale(0.100000,-0.100000)"
fill="#000000" stroke="none">
<path d="M1505 4289 c-78 -13 -131 -37 -165 -75 -38 -43 -39 -82 -4 -151 29
-59 139 -168 200 -198 l40 -20 -200 0 c-244 0 -274 -7 -471 -105 -175 -87
-271 -164 -328 -263 -49 -85 -51 -127 -10 -169 35 -34 93 -51 246 -69 l109
-12 -89 -32 c-292 -105 -491 -264 -599 -477 -71 -140 -28 -216 135 -239 60 -9
190 0 271 17 14 3 -15 -21 -65 -54 -121 -80 -255 -197 -322 -279 -30 -38 -63
-78 -74 -91 -10 -12 -19 -24 -19 -26 0 -5 -56 -100 -80 -136 -9 -14 -29 -56
-44 -94 -45 -112 -28 -168 64 -209 80 -36 224 -21 335 35 38 19 36 16 -40 -65
-119 -125 -235 -270 -235 -291 0 -4 -11 -22 -24 -39 -33 -44 -61 -103 -86
-178 -12 -35 -26 -72 -31 -82 -15 -28 -23 -178 -10 -209 13 -35 60 -64 115
-72 38 -6 143 15 201 39 14 6 7 -6 -21 -41 -100 -122 -191 -285 -220 -397 -31
-121 16 -229 121 -273 46 -19 180 -21 278 -3 198 35 474 169 632 306 l80 69 0
-106 c0 -93 3 -111 25 -155 48 -93 172 -126 296 -78 124 48 290 208 359 346
l35 70 11 -32 c6 -17 29 -68 51 -113 138 -286 294 -395 443 -309 49 29 107 81
129 119 6 10 27 43 47 73 20 30 53 95 74 144 20 50 40 94 45 98 4 5 24 -22 45
-60 52 -95 155 -214 223 -259 31 -21 59 -41 62 -45 3 -4 28 -17 55 -29 145
-62 281 -18 319 103 18 57 24 177 11 218 -7 21 -2 19 37 -16 42 -37 77 -66
138 -113 14 -11 61 -38 105 -62 44 -23 91 -49 105 -56 14 -8 71 -32 128 -54
146 -57 206 -69 352 -71 115 -2 172 22 219 91 55 80 53 176 -5 308 -29 66
-139 236 -189 291 -26 28 -32 41 -22 41 9 0 18 -4 22 -9 10 -18 148 -43 197
-36 37 5 54 14 78 41 27 32 30 41 30 105 0 119 -50 262 -146 421 -52 85 -205
274 -265 326 -56 49 -64 70 -18 46 96 -49 233 -68 320 -44 48 14 89 59 96 106
10 74 -85 270 -198 409 -84 104 -229 238 -332 307 -119 79 -117 76 -50 66 90
-13 254 -11 294 4 89 33 120 86 93 164 -33 100 -77 168 -169 260 -126 127
-247 203 -444 279 -95 37 -94 38 44 50 143 13 226 53 240 116 10 46 -44 145
-114 211 -84 79 -100 90 -171 127 -36 18 -92 48 -125 66 -33 18 -94 44 -135
57 -69 21 -93 23 -286 23 l-212 0 56 30 c31 17 82 56 113 87 91 92 124 184 86
241 -22 33 -109 75 -180 87 -90 14 -251 12 -332 -5 -107 -23 -254 -99 -374
-194 l-103 -83 -32 29 c-17 16 -51 45 -76 64 -25 18 -53 42 -64 51 -10 9 -35
25 -55 34 -20 9 -67 32 -106 51 -38 19 -99 41 -135 49 -70 15 -254 17 -335 3z
m1673 -1201 c7 -7 12 -37 12 -68 0 -31 -5 -61 -12 -68 -17 -17 -1309 -17
-1326 0 -7 7 -12 38 -12 70 0 44 4 59 18 67 26 16 1304 15 1320 -1z m-1388
-287 c6 -13 10 -150 10 -377 0 -349 -1 -358 -22 -401 -31 -63 -93 -98 -168
-96 -154 3 -242 122 -180 242 25 49 78 82 155 96 l60 11 5 255 c4 197 8 260
19 272 20 25 107 23 121 -2z m1378 -3 c9 -9 12 -106 12 -375 0 -337 -1 -367
-19 -401 -36 -70 -100 -104 -190 -103 -64 0 -119 32 -159 91 -32 48 -28 137 8
175 41 44 89 68 148 74 l57 6 5 260 c3 143 9 266 13 273 11 16 109 16 125 0z
m-808 -1034 c59 -24 80 -65 80 -155 -1 -82 -12 -111 -56 -140 -57 -37 -154
-15 -185 43 -18 34 -13 165 9 202 17 29 72 66 99 66 7 0 31 -7 53 -16z"/>
</g>
</svg>
